<?xml version="1.0" encoding="utf-8"?>
<!-- Generator: Adobe Illustrator 26.2.1, SVG Export Plug-In . SVG Version: 6.00 Build 0)  -->
<svg version="1.1" id="Layer_1" xmlns="http://www.w3.org/2000/svg" xmlns:xlink="http://www.w3.org/1999/xlink" x="0px" y="0px"
	 viewBox="0 0 680 48" style="enable-background:new 0 0 680 48;" xml:space="preserve">
<style type="text/css">
	.st0{fill:none;}
	.st1{fill:#1434CB;}
	.st2{fill:#FF5F00;}
	.st3{fill:#EB001B;}
	.st4{fill:#F79E1B;}
	.st5{fill:#2B67B0;}
	.st6{fill-rule:evenodd;clip-rule:evenodd;fill:#323E48;}
	.st7{fill-rule:evenodd;clip-rule:evenodd;fill:#00ADBB;}
	.st8{fill:#D0D2D3;}
	.st9{fill:#E6E6E6;}
	.st10{fill:#F2F2F2;}
	.st11{fill:#474747;}
	.st12{fill:#00ADBB;}
	.st13{fill:#FFFFFF;}
	.st14{fill:#CE0E2D;}
	.st15{fill:#002856;}
	.st16{fill:#007078;}
	.st17{fill-rule:evenodd;clip-rule:evenodd;fill:#FFFFFF;}
</style>
<g>
	<g>
		<rect class="st0" width="680" height="48"/>
		<g>
			<path class="st1" d="M132.4,14.5l-4.1,19.1h-5l4.1-19.1L132.4,14.5z M153.2,26.8l2.6-7.2l1.5,7.2H153.2z M158.7,33.6h4.6l-4-19.1
				h-4.2c-0.9,0-1.8,0.6-2.1,1.4l-7.4,17.7h5.2l1-2.9h6.3L158.7,33.6z M145.8,27.3c0-5-7-5.3-6.9-7.6c0-0.7,0.7-1.4,2.1-1.6
				c1.7-0.2,3.4,0.1,4.9,0.9l0.9-4c-1.5-0.6-3-0.8-4.6-0.9c-4.9,0-8.3,2.6-8.4,6.3c0,2.8,2.4,4.3,4.3,5.2s2.6,1.5,2.6,2.4
				c0,1.3-1.5,1.9-3,1.9c-1.8,0-3.5-0.4-5.1-1.2l-0.9,4.2c1.8,0.7,3.6,1,5.5,1C142.4,33.9,145.8,31.3,145.8,27.3 M125.4,14.5
				l-8,19.1h-5.2l-3.9-15.2c-0.1-0.7-0.5-1.4-1.2-1.7c-1.6-0.8-3.2-1.3-4.9-1.7l0.1-0.6h8.4c1.2,0,2.1,0.9,2.3,2l2.1,11.1l5.1-13
				L125.4,14.5z"/>
			<g id="Layer_2-3">
				<g id="Layer_1-2">
					<g id="_Group_">
						<rect x="209.4" y="12.9" class="st2" width="12.3" height="22.1"/>
						<path id="_Path_" class="st3" d="M210.2,24c0-4.3,2-8.3,5.4-11c-6.1-4.8-14.9-3.7-19.7,2.4s-3.7,14.9,2.4,19.7
							c5.1,4,12.3,4,17.4,0C212.2,32.4,210.2,28.3,210.2,24z"/>
						<path class="st4" d="M238.3,24c0,7.8-6.3,14-14.1,14c-3.1,0-6.2-1.1-8.6-3c6.1-4.8,7.1-13.7,2.3-19.8
							c-0.7-0.9-1.5-1.6-2.3-2.3c6-4.8,14.9-3.8,19.7,2.2C237.3,17.6,238.4,20.8,238.3,24z"/>
						<path class="st4" d="M237,32.7v-0.5h0.2v-0.1h-0.5v0.1h0.2L237,32.7L237,32.7z M237.9,32.7v-0.5h-0.1l-0.2,0.4l-0.2-0.4h-0.1
							v0.5h0.1v-0.4l0.1,0.3h0.1l0.1-0.3L237.9,32.7L237.9,32.7z"/>
					</g>
				</g>
			</g>
			<g>
				<polygon class="st5" points="55.5,22.8 56.6,22.8 57.7,22.8 57.7,18.6 57.7,14.3 56.6,14.3 55.5,14.3 55.5,18.5 				"/>
				<path class="st5" d="M51,17.9h-2.4v-1.7H51c0.5-0.1,0.9,0.3,1,0.8v0.1C52,17.6,51.7,17.9,51,17.9 M54.3,17
					c0-1.5-1.2-2.7-2.7-2.7c-0.1,0-0.2,0-0.3,0h-4.9v8.5h2.3v-3h0.8l2.6,3h2.8L52,19.7C53.3,19.5,54.3,18.4,54.3,17"/>
				<path class="st5" d="M61.2,18.6v-0.2c-0.1-1.1,0.7-2.1,1.8-2.2c0.1,0,0.2,0,0.3,0h2.5v-2h-2.7c-2.1-0.2-4,1.4-4.2,3.5
					c0,0.2,0,0.4,0,0.6v0.2c-0.2,2.1,1.4,4,3.5,4.1c0.2,0,0.4,0,0.7,0h0.8l0.9-1.9h-1.3c-1.1,0.1-2.1-0.7-2.2-1.8
					C61.2,18.9,61.2,18.8,61.2,18.6"/>
				<path class="st5" d="M18.2,19.2l1.2-2.8l1.2,2.8H18.2z M17.9,14.3l-3.7,8.5h2.5l0.7-1.7h3.9l0.7,1.7h2.6l-3.8-8.5
					C20.8,14.3,17.9,14.3,17.9,14.3z"/>
				<polygon class="st5" points="30.5,19.6 28.6,14.3 25,14.3 25,22.8 27.2,22.8 27.2,16.7 29.5,22.8 31.5,22.8 33.7,16.7 
					33.7,22.8 36,22.8 36,14.3 32.4,14.3 				"/>
				<polygon class="st5" points="37.7,22.8 44.9,22.8 44.9,20.9 40,20.9 40,19.5 44.8,19.5 44.8,17.6 40,17.6 40,16.2 44.9,16.2 
					44.9,14.3 37.7,14.3 				"/>
				<path class="st5" d="M68.9,19.2l1.2-2.8l1.2,2.8H68.9z M68.6,14.3l-3.7,8.5h2.5l0.7-1.7H72l0.7,1.7h2.6l-3.7-8.5
					C71.6,14.3,68.6,14.3,68.6,14.3z"/>
				<polygon class="st5" points="82,19.5 78.6,14.3 75.7,14.3 75.7,22.8 78,22.8 78,17.4 81.5,22.8 84.3,22.8 84.3,14.3 82,14.3 
									"/>
				<path class="st5" d="M74.6,28.5h-2.1c-0.4,0.1-0.7-0.2-0.8-0.6c-0.1-0.4,0.2-0.7,0.6-0.8c0.1,0,0.2,0,0.2,0h3.8l0.9-1.9h-4.7
					c-1.9,0-3,1.1-3,2.7c-0.1,1.3,1,2.5,2.3,2.5c0.1,0,0.3,0,0.4,0h2.1c0.4-0.1,0.7,0.2,0.8,0.6c0.1,0.4-0.2,0.7-0.6,0.8
					c-0.1,0-0.2,0-0.2,0h-4.6v1.9h4.6c1.5,0.2,2.8-0.9,3-2.4c0-0.1,0-0.3,0-0.4C77.3,29.4,76.3,28.5,74.6,28.5"/>
				<path class="st5" d="M56.8,28.9h-2.4v-1.7h2.4c0.5-0.1,0.9,0.3,1,0.8v0.1C57.9,28.5,57.5,28.9,56.8,28.9 M60.1,28
					c0-1.5-1.2-2.7-2.7-2.7c-0.1,0-0.2,0-0.3,0h-4.9v8.5h2.3v-3h0.8l2.6,3h2.8l-2.8-3.1C59.2,30.4,60.1,29.3,60.1,28"/>
				<polygon class="st5" points="61.3,33.7 68.5,33.7 68.5,31.8 63.6,31.8 63.6,30.4 68.4,30.4 68.4,28.5 63.6,28.5 63.6,27.1 
					68.5,27.1 68.5,25.2 61.3,25.2 				"/>
				<path class="st5" d="M47.9,29h-2.4v-1.9h2.4c0.5-0.1,1,0.3,1,0.8c0.1,0.5-0.3,1-0.8,1C48.1,29,48,29,47.9,29 M48.2,25.2h-5v8.5
					h2.3v-2.8h2.6c1.6,0.1,2.9-1,3.1-2.5c0-0.1,0-0.2,0-0.3c0.1-1.5-1.1-2.8-2.7-2.9C48.4,25.2,48.3,25.2,48.2,25.2"/>
				<path class="st5" d="M82.9,28.5h-2.1c-0.4,0.1-0.7-0.2-0.8-0.6c-0.1-0.4,0.2-0.7,0.6-0.8c0.1,0,0.2,0,0.2,0h3.8l0.9-1.9h-4.7
					c-1.9,0-3,1.1-3,2.7c-0.1,1.3,1,2.5,2.3,2.5c0.1,0,0.3,0,0.4,0h2.1c0.4-0.1,0.7,0.2,0.8,0.6c0.1,0.4-0.2,0.7-0.6,0.8
					c-0.1,0-0.2,0-0.2,0H78v1.9h4.6c1.5,0.2,2.8-0.9,3-2.4c0-0.1,0-0.2,0-0.4C85.6,29.4,84.6,28.5,82.9,28.5"/>
				<polygon class="st5" points="25,33.7 32.2,33.7 32.2,31.8 27.3,31.8 27.3,30.4 32.1,30.4 32.1,28.5 27.3,28.5 27.3,27.1 
					32.2,27.1 32.2,25.2 25,25.2 				"/>
				<polygon class="st5" points="42.8,25.2 40,25.2 37.8,27.8 35.5,25.2 32.6,25.2 36.3,29.4 32.5,33.7 35.4,33.7 37.7,31 40,33.7 
					43,33.7 39.2,29.4 				"/>
			</g>
			<g>
				<path class="st6" d="M404.1,16.4c-0.8,0-1.6,0.5-1.9,1.2l-3.6,8.2l-1.3-8.2c-0.1-0.7-0.8-1.3-1.5-1.2h-4.5l3.9,13.6
					c0.1,0.3,0.1,0.6,0,0.9c-0.2,1.2-1.2,2.1-2.4,2.1h-2.5c-0.6,0-1.1,0.4-1.3,1.3l-0.6,3.4h4.5c2.9-0.1,5.6-1.8,6.9-4.4l8.9-16.8
					L404.1,16.4z"/>
				<path class="st6" d="M360.2,12.4c1.3,0,2,0.5,1.7,1.9l-0.4,2.2h3.1l-0.7,3.8h-3.1L360,25c-0.3,1.6,1.4,1.9,2.3,1.9h0.5l-0.8,4.3
					c-0.3,0-0.7,0.1-1,0c-2.3,0-6.7-0.6-5.9-5.5l0.9-5.4h-2l0.7-3.8h2.2l0.7-4.1L360.2,12.4z"/>
				<path class="st7" d="M386,16.6l-0.8,4.5c1.5,0.8,2.1,2.6,1.3,4c-0.5,0.9-1.3,1.5-2.3,1.6l-0.8,4.5h0.4c4.1,0,7.4-3.4,7.4-7.5
					C391.2,20.4,389.1,17.6,386,16.6"/>
				<path class="st7" d="M382.5,26.4c-1.5-0.8-2.1-2.6-1.3-4c0.5-0.9,1.3-1.5,2.3-1.6l0.8-4.5h-0.4c-4.1,0-7.5,3.4-7.4,7.5
					c0,3.3,2.2,6.2,5.3,7.1L382.5,26.4z"/>
				<path class="st6" d="M366.4,16.4h2.6c1.3,0,2,0.5,1.8,1.9l-0.3,1.6c1-2.1,3-3.5,5.3-3.6c0.2,0,0.4,0,0.6,0l-0.9,4.8
					c-0.3-0.1-0.7-0.1-1-0.1c-1.8-0.1-3.5,0.9-4.2,2.6c-0.3,0.6-0.5,1.3-0.6,2l-1,5.4h-4.9L366.4,16.4z"/>
				<path class="st6" d="M407.5,31.4c0-0.1,0-0.2-0.1-0.2c-0.1-0.1-0.1-0.1-0.2-0.1h-0.3v0.6h0.3c0.1,0,0.2,0,0.2-0.1
					C407.5,31.6,407.5,31.5,407.5,31.4 M407.8,32.6h-0.3l-0.4-0.7h-0.3v0.7h-0.2v-1.7h0.6c0.1,0,0.3,0.1,0.4,0.1
					c0.1,0.1,0.2,0.2,0.2,0.4c0,0.2-0.1,0.4-0.4,0.5L407.8,32.6z M408.5,31.8c0,0.4-0.1,0.7-0.4,1c-0.2,0.3-0.6,0.4-0.9,0.4
					c-0.4,0-0.7-0.1-0.9-0.4c-0.5-0.5-0.5-1.4,0-1.9c0.2-0.3,0.6-0.4,0.9-0.4c0.4,0,0.7,0.1,0.9,0.4
					C408.3,31.1,408.5,31.4,408.5,31.8 M408.7,31.8c0,0.4-0.2,0.8-0.5,1.1s-0.7,0.5-1.1,0.5s-0.8-0.2-1.1-0.5
					c-0.6-0.6-0.6-1.6,0-2.2c0.3-0.3,0.7-0.5,1.1-0.5s0.8,0.2,1.1,0.5C408.5,31,408.7,31.4,408.7,31.8"/>
			</g>
			<g>
				<path class="st8" d="M481.1,12.2l-17.9-8.9l-17.8,8.9c-2.6,27.6,17.9,32.4,17.9,32.4S483.7,39.9,481.1,12.2z"/>
				<path class="st9" d="M478.8,13.8L463.2,6l-15.6,7.8c-2.3,24,15.6,28.2,15.6,28.2S481.1,37.8,478.8,13.8z"/>
				<path class="st10" d="M463.1,42c0,0-17.9-4.2-15.6-28.3L463.1,6V42z"/>
				<path class="st11" d="M461.4,16.5c0,0.9-0.3,1.7-0.9,2.4c-0.7,0.7-1.5,1.2-2.5,1.5v0.1c2.5,0.3,3.8,1.5,3.8,3.5
					c0,1.3-0.6,2.6-1.6,3.3c-1.4,0.9-3,1.3-4.6,1.2c-0.8,0-1.5-0.1-2.2-0.2c-0.8-0.1-1.5-0.3-2.2-0.6v-3.4c0.6,0.3,1.3,0.6,2,0.8
					c0.6,0.2,1.2,0.2,1.9,0.2c0.7,0,1.3-0.1,2-0.4c0.4-0.2,0.6-0.7,0.6-1.2c0-0.3-0.1-0.7-0.3-1c-0.3-0.3-0.6-0.4-1-0.5
					c-0.6-0.1-1.2-0.2-1.8-0.2h-1v-3h1c2.1,0,3.1-0.5,3.1-1.6c0-0.4-0.2-0.7-0.5-0.9c-0.4-0.2-0.8-0.3-1.2-0.3c-1.1,0-2.1,0.4-3,1
					l-1.7-2.7c0.7-0.5,1.6-0.9,2.4-1.2c0.9-0.3,1.9-0.4,2.9-0.4c1.3-0.1,2.6,0.3,3.6,0.9C460.9,14.5,461.4,15.5,461.4,16.5z"/>
				<path class="st11" d="M477,20.4c0.1,2.1-0.6,4.2-2.1,5.8c-1.6,1.4-3.7,2.1-5.8,2h-4.9v-15h5.2c2-0.1,4,0.5,5.6,1.8
					C476.4,16.5,477.2,18.4,477,20.4z M472.8,20.6c0.1-1.1-0.2-2.2-0.8-3.1c-0.6-0.7-1.5-1.1-2.5-1h-1.2v8.4h0.9
					c1,0.1,2-0.3,2.7-1.1C472.6,22.9,472.9,21.7,472.8,20.6L472.8,20.6z"/>
				<path class="st11" d="M448.2,37.6c0,0.5-0.1,1-0.4,1.4s-0.7,0.8-1.2,1c-0.6,0.2-1.2,0.4-1.8,0.3c-0.5,0-1,0-1.4-0.1
					s-0.8-0.2-1.2-0.4v-2.1c0.4,0.2,0.9,0.4,1.4,0.5c0.4,0.1,0.9,0.2,1.3,0.2c0.3,0,0.5,0,0.8-0.2s0.3-0.5,0.1-0.8l0,0
					c-0.1-0.1-0.2-0.2-0.3-0.3c-0.1-0.1-0.5-0.3-1.1-0.5c-0.5-0.2-0.9-0.4-1.3-0.7c-0.3-0.2-0.5-0.5-0.6-0.8s-0.2-0.7-0.2-1.1
					c0-0.7,0.3-1.4,0.9-1.8c0.7-0.5,1.5-0.7,2.4-0.7s1.9,0.2,2.7,0.6l-0.7,1.8c-0.6-0.3-1.4-0.5-2.1-0.6c-0.2,0-0.5,0-0.7,0.2
					c-0.1,0.1-0.2,0.2-0.2,0.4s0.1,0.4,0.3,0.5c0.4,0.3,0.9,0.5,1.4,0.7c0.6,0.2,1.1,0.6,1.5,1.1C448.1,36.6,448.2,37.1,448.2,37.6z
					"/>
				<path class="st11" d="M454.6,40.2h-5.1v-8.6h5.1v1.9h-2.8v1.3h2.6v1.9h-2.6v1.6h2.8V40.2z"/>
				<path class="st11" d="M459.9,33.5c-0.5,0-1,0.2-1.3,0.7c-0.3,0.6-0.5,1.2-0.5,1.9c0,1.7,0.6,2.5,1.9,2.5c0.4,0,0.7-0.1,1.1-0.2
					c0.4-0.1,0.7-0.2,1.1-0.4v2c-0.8,0.3-1.6,0.5-2.4,0.5c-1.1,0.1-2.2-0.3-3-1.1c-0.7-0.9-1.1-2.1-1-3.2c0-0.8,0.2-1.6,0.5-2.3
					s0.8-1.2,1.4-1.5c0.7-0.4,1.4-0.6,2.2-0.5c0.9,0,1.8,0.2,2.6,0.6l-0.7,1.8c-0.3-0.1-0.6-0.3-1-0.4
					C460.6,33.5,460.3,33.5,459.9,33.5z"/>
				<path class="st11" d="M471.2,31.7v5.2c0.1,1-0.3,1.9-1,2.6c-1.6,1.2-3.8,1.2-5.4,0c-0.7-0.7-1-1.6-0.9-2.6v-5.2h2.3v5
					c0,0.5,0.1,0.9,0.3,1.3c0.6,0.5,1.4,0.5,2,0c0.2-0.4,0.4-0.9,0.3-1.3v-5H471.2z"/>
				<path class="st11" d="M475.3,37.1v3.1H473v-8.6h2.8c2.3,0,3.5,0.8,3.5,2.5c0,1-0.6,1.9-1.5,2.3l2.5,3.7h-2.6l-1.8-3.1
					L475.3,37.1L475.3,37.1z M475.3,35.4h0.4c0.8,0,1.2-0.3,1.2-1.1s-0.4-0.9-1.2-0.9h-0.5L475.3,35.4z"/>
				<path class="st11" d="M486.2,40.2h-5.1v-8.6h5.1v1.9h-2.8v1.3h2.6v1.9h-2.6v1.6h2.8V40.2z"/>
			</g>
			<g>
				<path class="st12" d="M654.4,10.6h-108v27.3h108c6.3,0,11.5-5.1,11.5-11.5l0,0V22C665.8,15.7,660.7,10.6,654.4,10.6z"/>
				<path class="st13" d="M570.1,29.7c-0.7,0.2-1.4,0.3-2.1,0.2c-0.8,0-1.5-0.1-2.2-0.4s-1.3-0.6-1.8-1.1s-0.9-1.1-1.1-1.7
					c-0.6-1.5-0.6-3.1,0-4.5c0.3-0.7,0.6-1.3,1.2-1.7c0.5-0.5,1.1-0.9,1.7-1.1c0.7-0.3,1.4-0.4,2.1-0.4c0.8,0,1.5,0.1,2.2,0.4
					c0.6,0.2,1.2,0.6,1.7,1l-1.5,1.8c-0.3-0.3-0.6-0.5-0.9-0.7c-0.4-0.2-0.9-0.3-1.3-0.3c-0.4,0-0.8,0.1-1.2,0.2
					c-0.4,0.2-0.7,0.4-0.9,0.7c-0.3,0.3-0.5,0.6-0.6,1c-0.2,0.4-0.2,0.9-0.2,1.3c0,0.5,0.1,0.9,0.2,1.3c0.1,0.4,0.3,0.7,0.6,1.1
					c0.3,0.3,0.6,0.5,1,0.7s0.9,0.2,1.3,0.2c0.3,0,0.5,0,0.8-0.1c0.2,0,0.5-0.1,0.7-0.2v-1.9h-1.9v-2h4.1V29
					C571.3,29.3,570.7,29.5,570.1,29.7z"/>
				<path class="st13" d="M582.3,25.7c0,0.6-0.1,1.2-0.3,1.7s-0.5,1-0.9,1.3c-0.4,0.4-0.9,0.7-1.4,0.9c-0.6,0.2-1.2,0.3-1.8,0.3
					s-1.2-0.1-1.8-0.3c-0.5-0.2-1-0.5-1.4-0.9s-0.7-0.8-0.8-1.3c-0.2-0.6-0.3-1.1-0.3-1.7v-6.6h2.4v6.3c0,0.3,0,0.5,0.1,0.8
					c0.1,0.2,0.2,0.5,0.3,0.7c0.2,0.2,0.4,0.4,0.6,0.5c0.6,0.2,1.2,0.2,1.8,0c0.2-0.1,0.4-0.3,0.6-0.5c0.1-0.2,0.3-0.4,0.3-0.7
					c0.1-0.3,0.1-0.5,0.1-0.8V19h2.4L582.3,25.7L582.3,25.7z M577.7,17c0,0.3-0.1,0.6-0.3,0.9c-0.2,0.2-0.5,0.3-0.8,0.4
					c-0.3,0-0.6-0.1-0.8-0.4c-0.2-0.2-0.3-0.5-0.3-0.9c0-0.2,0-0.3,0.1-0.5c0.1-0.1,0.1-0.3,0.2-0.4c0.1-0.1,0.2-0.2,0.4-0.3
					c0.1-0.1,0.3-0.1,0.5-0.1c0.3,0,0.6,0.1,0.8,0.4C577.5,16.4,577.7,16.7,577.7,17z M580.8,17c0,0.3-0.1,0.6-0.3,0.9
					c-0.2,0.2-0.5,0.4-0.8,0.4s-0.6-0.1-0.8-0.4c-0.2-0.2-0.3-0.5-0.3-0.9c0-0.2,0-0.3,0.1-0.5c0.1-0.1,0.1-0.3,0.2-0.4
					c0.1-0.1,0.2-0.2,0.4-0.3s0.3-0.1,0.5-0.1c0.3,0,0.6,0.1,0.8,0.4C580.6,16.4,580.8,16.7,580.8,17z"/>
				<path class="st13" d="M589.2,29.6h-2.4L583,19.1h2.7l2.3,7.4l0,0l2.3-7.5h2.7L589.2,29.6z"/>
				<path class="st13" d="M593.9,29.6V19.1h6.7v2.1h-4.4v2h4.2v2h-4.2v2.2h4.7v2.2L593.9,29.6z"/>
				<path class="st13" d="M608.9,29.6l-4-6.9l0,0v6.9h-2.3V19.1h2.8l4,6.9l0,0l-0.1-6.9h2.3v10.5H608.9z"/>
				<path class="st13" d="M613.7,29.6V19.1h2.4v8.3h3.9v2.2L613.7,29.6z"/>
				<path class="st13" d="M623.6,17c0,0.7-0.5,1.2-1.2,1.3h-0.1c-0.3,0-0.7-0.1-0.9-0.4c-0.2-0.2-0.4-0.5-0.4-0.9
					c0-0.3,0.1-0.7,0.3-0.9c0.5-0.5,1.3-0.5,1.8,0l0,0C623.4,16.3,623.6,16.7,623.6,17z M621.1,29.6V19.1h2.4v10.5H621.1z"/>
				<path class="st13" d="M639.6,24.3c0,0.8-0.1,1.6-0.4,2.3c-0.3,0.7-0.7,1.3-1.2,1.8s-1.1,0.9-1.7,1.1c-0.7,0.3-1.4,0.4-2.2,0.4
					c-0.7,0-1.5-0.1-2.2-0.4c-0.6-0.3-1.2-0.7-1.7-1.1c-0.5-0.5-0.9-1.1-1.1-1.8c-0.5-1.5-0.5-3.1,0-4.6c0.3-0.6,0.6-1.2,1.1-1.7
					s1.1-0.9,1.8-1.1c0.7-0.3,1.4-0.4,2.2-0.4c0.7,0,1.5,0.1,2.2,0.4c0.6,0.3,1.2,0.6,1.7,1.1s0.9,1.1,1.2,1.7
					C639.4,22.7,639.6,23.5,639.6,24.3z M637,24.3c0-0.4-0.1-0.9-0.2-1.3c-0.1-0.4-0.3-0.7-0.6-1s-0.6-0.5-0.9-0.7
					c-0.4-0.2-0.8-0.2-1.2-0.2s-0.8,0.1-1.2,0.2c-0.3,0.2-0.7,0.4-0.9,0.7c-0.3,0.3-0.5,0.6-0.6,1c-0.3,0.8-0.3,1.8,0,2.6
					c0.1,0.4,0.3,0.7,0.6,1s0.6,0.5,0.9,0.7c0.4,0.2,0.8,0.2,1.2,0.2s0.8-0.1,1.2-0.2c0.3-0.2,0.7-0.4,0.9-0.7
					c0.3-0.3,0.5-0.6,0.6-1C636.9,25.2,637,24.8,637,24.3L637,24.3z M633.8,17c0,0.3-0.1,0.6-0.3,0.9c-0.4,0.5-1.2,0.5-1.6,0
					c-0.2-0.2-0.4-0.6-0.4-0.9c0-0.2,0-0.3,0.1-0.5c0.1-0.1,0.1-0.3,0.2-0.4c0.1-0.1,0.2-0.2,0.4-0.3c0.1-0.1,0.3-0.1,0.5-0.1
					c0.3,0,0.6,0.1,0.8,0.4C633.6,16.4,633.8,16.7,633.8,17z M636.9,17c0,0.3-0.1,0.6-0.4,0.9c-0.2,0.2-0.5,0.4-0.8,0.4
					s-0.6-0.1-0.8-0.4c-0.2-0.2-0.3-0.5-0.3-0.9c0-0.2,0-0.3,0.1-0.5c0.1-0.1,0.1-0.3,0.2-0.4c0.1-0.1,0.2-0.2,0.4-0.3
					s0.3-0.1,0.5-0.1c0.3,0,0.6,0.1,0.8,0.4C636.7,16.4,636.9,16.7,636.9,17z"/>
				<path class="st13" d="M650.5,24.4c0,0.8-0.1,1.6-0.5,2.4c-0.3,0.6-0.7,1.2-1.3,1.7c-0.5,0.5-1.2,0.8-1.8,1s-1.3,0.3-2,0.3h-3.7
					V19.1h3.6c0.7,0,1.4,0.1,2.1,0.2c0.7,0.2,1.3,0.5,1.8,0.9s1,1,1.2,1.6C650.3,22.6,650.5,23.5,650.5,24.4z M648,24.4
					c0-0.5-0.1-1-0.3-1.5c-0.2-0.4-0.4-0.7-0.7-0.9c-0.3-0.2-0.6-0.4-1-0.5s-0.8-0.1-1.2-0.1h-1.2v6.1h1.2c0.4,0,0.8,0,1.3-0.1
					c0.4-0.1,0.7-0.3,1-0.5c0.3-0.3,0.6-0.6,0.7-1C647.9,25.3,648,24.8,648,24.4z"/>
				<path class="st13" d="M652.1,29.6V19.1h6.7v2.1h-4.4v2h4.2v2h-4.2v2.2h4.7v2.2L652.1,29.6z"/>
				<path class="st13" d="M560.5,21.4c-1.5-7.4-8.7-12.1-16.1-10.6s-12.1,8.7-10.6,16.1s8.7,12.1,16.1,10.6
					c6.3-1.3,10.9-6.9,10.9-13.3C560.8,23.3,560.7,22.3,560.5,21.4"/>
				<path class="st12" d="M554.8,24.2c0-4.2-3.4-7.6-7.6-7.6c-4.2,0-7.6,3.4-7.6,7.6s3.4,7.6,7.6,7.6l0,0
					C551.4,31.8,554.8,28.4,554.8,24.2L554.8,24.2z"/>
				<path class="st12" d="M521.3,27v-5.1H535c0.1,0.7,0.2,1.4,0.2,2.1c0.2,7.5-5.7,13.7-13.2,13.9c-0.2,0-0.4,0-0.5,0
					c-7.7,0-13.9-6.2-13.9-13.9s6.2-13.9,13.9-13.9c4.3,0,8.4,2,11,5.5l-4.7,3.6c-1.4-2.1-3.8-3.4-6.3-3.5c-4.2,0-7.7,3.8-7.7,8.3
					c-0.1,4.4,3.3,8.1,7.8,8.2c4.6,0,6.7-2.7,7.2-5.2L521.3,27z"/>
			</g>
			<g>
				<path class="st14" d="M284.2,8.3h12.4c1.7,0,2.8,1.4,2.4,3.1l-5.8,24.8c-0.4,1.7-2.1,3.1-3.9,3.1h-12.4c-1.7,0-2.8-1.4-2.4-3.1
					l5.8-24.8C280.7,9.8,282.4,8.3,284.2,8.3L284.2,8.3L284.2,8.3z"/>
				<path class="st15" d="M295.5,8.3h14.2c1.7,0,1,1.4,0.5,3.1l-5.8,24.8c-0.4,1.7-0.3,3.1-2,3.1h-14.2c-1.7,0-2.8-1.4-2.4-3.1
					l5.8-24.8C292.1,9.8,293.8,8.3,295.5,8.3L295.5,8.3L295.5,8.3z"/>
				<path class="st16" d="M309.2,8.3h12.4c1.7,0,2.8,1.4,2.4,3.1l-5.8,24.8c-0.4,1.7-2.1,3.1-3.9,3.1H302c-1.7,0-2.8-1.4-2.4-3.1
					l5.8-24.8C305.8,9.8,307.5,8.3,309.2,8.3L309.2,8.3L309.2,8.3z"/>
				<path class="st17" d="M307.2,31.6h1.2l0.3-1.1h-1.2L307.2,31.6L307.2,31.6z M308.1,28.6l-0.4,1.3c0,0,0.4-0.2,0.7-0.3
					c0.2-0.1,0.6-0.1,0.6-0.1l0.3-0.9H308.1L308.1,28.6z M308.7,26.6l-0.4,1.3c0,0,0.4-0.2,0.7-0.3c0.2-0.1,0.6-0.1,0.6-0.1l0.3-0.9
					H308.7L308.7,26.6z M311.3,26.6l-1.5,5h0.4l-0.3,1h-0.4l-0.1,0.3H308l0.1-0.3h-2.9l0.3-1h0.3l1.5-5.1l0.3-1h1.5l-0.2,0.5
					c0,0,0.4-0.3,0.8-0.4s2.5-0.1,2.5-0.1l-0.3,1h-0.6V26.6z"/>
				<path class="st13" d="M311.9,25.6h1.6v0.6c0,0.1,0.1,0.1,0.3,0.1h0.3l-0.3,1H313c-0.7,0.1-1-0.3-1-0.6L311.9,25.6L311.9,25.6z"
					/>
				<path class="st13" d="M312.1,30.2h-1.5l0.3-0.9h1.7l0.2-0.8h-1.7l0.3-1h4.7l-0.3,1h-1.6l-0.2,0.8h1.6l-0.3,0.9h-1.7l-0.3,0.4
					h0.7l0.2,1.1c0,0.1,0,0.2,0.1,0.2c0,0,0.2,0.1,0.4,0.1h0.2l-0.3,1.1h-0.5c-0.1,0-0.2,0-0.4,0c-0.2,0-0.3-0.1-0.4-0.2
					c-0.1,0-0.2-0.2-0.3-0.4l-0.2-1.1l-0.8,1.1c-0.2,0.3-0.6,0.6-1.1,0.6h-1.1l0.3-0.9h0.4c0.1,0,0.2,0,0.3-0.1
					c0.1,0,0.2-0.1,0.2-0.2L312.1,30.2L312.1,30.2z"/>
				<path class="st13" d="M295.8,27.8h3.9l-0.3,0.9h-1.6l-0.2,0.8h1.6l-0.3,1h-1.6l-0.4,1.3c0,0.1,0.4,0.2,0.5,0.2l0.8-0.1l-0.3,1.1
					h-1.8c-0.1,0-0.3,0-0.4-0.1c-0.2,0-0.2-0.1-0.3-0.2c-0.1-0.1-0.2-0.2-0.1-0.4l0.5-1.7h-0.9l0.3-1h0.9l0.2-0.8h-0.9L295.8,27.8
					L295.8,27.8z"/>
				<path class="st13" d="M298.4,26.1h1.6l-0.3,1h-2.2l-0.2,0.2c-0.1,0.1-0.1,0.1-0.3,0.1c-0.1,0.1-0.4,0.2-0.7,0.2h-0.7l0.3-0.9
					h0.2c0.2,0,0.3,0,0.4-0.1c0.1,0,0.1-0.1,0.2-0.3l0.4-0.7h1.6L298.4,26.1L298.4,26.1z"/>
				<path class="st17" d="M301.5,27.8c0,0,0.4-0.4,1.2-0.5c0.2,0,1.2,0,1.2,0l0.2-0.5h-2.3L301.5,27.8L301.5,27.8z M303.7,28.2h-2.3
					l-0.1,0.5h2c0.2,0,0.3,0,0.3,0L303.7,28.2L303.7,28.2z M300.7,25.6h1.4l-0.2,0.7c0,0,0.4-0.3,0.7-0.5c0.3-0.1,1-0.2,1-0.2h2.2
					l-0.8,2.5c-0.1,0.4-0.3,0.7-0.4,0.8c-0.1,0.1-0.2,0.2-0.4,0.3c-0.2,0.1-0.4,0.2-0.5,0.2s-0.4,0-0.7,0h-2l-0.6,2
					c-0.1,0.2-0.1,0.3,0,0.3c0,0,0.1,0.1,0.2,0.1l0.9-0.1l-0.3,1.1h-1.1c-0.3,0-0.6,0-0.8,0c-0.2,0-0.3,0-0.4-0.1s-0.2-0.2-0.2-0.3
					s0.1-0.3,0.1-0.5L300.7,25.6L300.7,25.6z"/>
				<path class="st13" d="M304.8,29.7l-0.1,0.6c-0.1,0.2-0.1,0.3-0.2,0.5c-0.1,0.1-0.3,0.3-0.7,0.3H303v0.7c0,0.2,0,0.2,0.1,0.2
					c0,0,0.1,0,0.1,0.1h0.2h0.7l-0.3,1H303c-0.6,0-1,0-1.2-0.1c-0.1-0.1-0.2-0.2-0.2-0.4l0.1-2.7h1.3v0.5h0.3c0.1,0,0.2,0,0.2,0
					l0.1-0.1l0.1-0.4h1.1V29.7z"/>
				<path class="st13" d="M285.6,16.3c0,0.2-0.9,4.2-0.9,4.2c-0.2,0.8-0.3,1.4-0.8,1.7c-0.3,0.2-0.6,0.3-0.9,0.3
					c-0.6,0-0.9-0.3-1-0.8v-0.2l0.2-1.1c0,0,0.9-3.6,1.1-4.1c0,0,0,0,0-0.1c-1.8,0-2.1,0-2.1,0l-0.1,0.3l-0.9,4.1l-0.1,0.3l-0.2,1.1
					c0,0.3,0.1,0.6,0.2,0.8c0.4,0.7,1.6,0.8,2.3,0.8c0.9,0,1.7-0.2,2.2-0.5c1-0.6,1.2-1.5,1.4-2.2l0.1-0.4c0,0,0.9-3.8,1.1-4.2
					c0,0,0,0,0-0.1C286.1,16.3,285.8,16.3,285.6,16.3L285.6,16.3z"/>
				<path class="st13" d="M290.8,23.7c-0.6,0-0.8,0-1.6,0v-0.1c0.1-0.3,0.1-0.6,0.2-0.8l0.1-0.4c0.1-0.6,0.3-1.3,0.3-1.5
					c0-0.1,0.1-0.4-0.3-0.4c-0.2,0-0.3,0.1-0.5,0.1c-0.1,0.3-0.3,1.2-0.3,1.6c-0.2,0.8-0.2,0.9-0.3,1.4l-0.1,0.1c-0.6,0-0.9,0-1.6,0
					v-0.1c0.1-0.5,0.2-1,0.4-1.5c0.3-1.4,0.4-1.9,0.5-2.6h0.1c0.7-0.1,0.9-0.1,1.7-0.3l0.1,0.1l-0.1,0.4c0.1-0.1,0.3-0.2,0.4-0.2
					c0.4-0.2,0.8-0.2,1-0.2c0.3,0,0.7,0.1,0.9,0.5c0.1,0.4,0.1,0.8-0.1,1.6l-0.1,0.4C291,22.8,291,23,290.8,23.7L290.8,23.7
					L290.8,23.7z"/>
				<path class="st13" d="M293.3,23.7c-0.4,0-0.6,0-0.9,0c-0.2,0-0.5,0-0.8,0l0,0l0,0c0.1-0.4,0.1-0.5,0.2-0.6
					c0-0.1,0.1-0.3,0.2-0.6c0.1-0.5,0.2-0.8,0.2-1.1c0.1-0.3,0.1-0.5,0.1-0.8l0,0l0,0c0.4-0.1,0.6-0.1,0.9-0.1
					c0.2,0,0.5-0.1,0.9-0.2l0,0l0,0c-0.1,0.3-0.1,0.6-0.2,0.9s-0.1,0.6-0.2,0.9c-0.1,0.6-0.2,0.9-0.2,1
					C293.4,23.2,293.4,23.3,293.3,23.7L293.3,23.7L293.3,23.7L293.3,23.7z"/>
				<path class="st13" d="M297.3,21.5c0,0.2-0.2,0.8-0.4,1c-0.1,0.2-0.3,0.3-0.5,0.3c-0.1,0-0.4,0-0.4-0.5c0-0.2,0-0.5,0.1-0.7
					c0.2-0.7,0.4-1.3,0.9-1.3C297.4,20.3,297.5,20.8,297.3,21.5L297.3,21.5z M298.9,21.6c0.2-1,0.1-1.4-0.2-1.7
					c-0.3-0.4-0.9-0.5-1.5-0.5c-0.4,0-1.2,0-1.9,0.7c-0.5,0.4-0.7,1-0.8,1.6c-0.1,0.6-0.3,1.6,0.7,2c0.3,0.1,0.7,0.2,1,0.2
					c0.7,0,1.4-0.2,2-0.8C298.7,22.6,298.8,21.9,298.9,21.6L298.9,21.6z"/>
				<path class="st13" d="M314.2,23.8c-0.8,0-1,0-1.7,0v-0.1c0.2-0.7,0.4-1.4,0.5-2.2c0.2-0.9,0.3-1.3,0.3-1.9h0.1
					c0.7-0.1,1-0.1,1.7-0.3v0.1c-0.1,0.6-0.3,1.2-0.4,1.8C314.4,22.5,314.3,23.1,314.2,23.8L314.2,23.8L314.2,23.8z"/>
				<path class="st13" d="M313,21.6c0,0.2-0.2,0.8-0.4,1c-0.1,0.2-0.4,0.3-0.6,0.3c0,0-0.4,0-0.4-0.5c0-0.2,0-0.5,0.1-0.7
					c0.2-0.7,0.4-1.3,0.9-1.3C313,20.4,313.2,20.9,313,21.6L313,21.6z M314.5,21.7c0.2-1-0.7-0.1-0.8-0.4c-0.2-0.5-0.1-1.5-0.9-1.8
					c-0.3-0.1-1.1,0-1.8,0.6c-0.5,0.4-0.7,1-0.8,1.6c-0.1,0.6-0.3,1.6,0.7,2c0.3,0.1,0.6,0.2,0.9,0.2c1-0.1,1.7-1.5,2.3-2.1
					C314.4,21.3,314.4,21.9,314.5,21.7L314.5,21.7z"/>
				<path class="st13" d="M303.2,23.7c-0.6,0-0.8,0-1.6,0v-0.1c0.1-0.3,0.1-0.6,0.2-0.8l0.1-0.4c0.1-0.6,0.3-1.3,0.3-1.5
					c0-0.1,0.1-0.4-0.3-0.4c-0.2,0-0.3,0.1-0.5,0.1c-0.1,0.3-0.3,1.2-0.4,1.6c-0.2,0.8-0.2,0.9-0.3,1.4l-0.1,0.1c-0.6,0-0.9,0-1.6,0
					v-0.1c0.1-0.5,0.2-1,0.4-1.5c0.3-1.4,0.4-1.9,0.5-2.6h0.1c0.7-0.1,0.9-0.1,1.7-0.3l0.1,0.1l-0.1,0.4c0.1-0.1,0.3-0.2,0.4-0.2
					c0.4-0.2,0.8-0.2,1-0.2c0.3,0,0.7,0.1,0.9,0.5c0.1,0.4,0,0.8-0.1,1.6l-0.1,0.4C303.4,22.8,303.4,23,303.2,23.7L303.2,23.7
					L303.2,23.7z"/>
				<path class="st13" d="M308.6,16.3h-0.5c-1.3,0-1.9,0-2.1,0c0,0.1-0.1,0.3-0.1,0.3l-0.5,2.2c0,0-1.2,4.8-1.2,5c1.2,0,1.7,0,1.9,0
					c0-0.2,0.3-1.6,0.3-1.6l0.2-1l0.1-0.1h0.1c1,0,2.2,0,3.1-0.7c0.6-0.5,1-1.1,1.2-1.9c0-0.2,0.1-0.4,0.1-0.7
					c0-0.3-0.1-0.6-0.2-0.9C310.5,16.3,309.6,16.3,308.6,16.3L308.6,16.3z M309.2,18.6c-0.1,0.5-0.4,0.9-0.8,1.1
					c-0.3,0.2-0.8,0.2-1.2,0.2h-0.3v-0.1l0.5-2.2v-0.1v-0.1h0.2l1.1,0.1C309.2,17.6,309.4,18,309.2,18.6L309.2,18.6z"/>
				<path class="st13" d="M320.3,19.4L320.3,19.4c-0.8,0.1-1,0.1-1.7,0.2l-0.1,0.1l0,0l0,0c-0.5,1.2-0.5,1-0.9,1.9v-0.1l-0.1-2.1
					l-0.1-0.1c-0.8,0.2-0.8,0.2-1.6,0.3l-0.1,0.1v0.1l0,0c0.1,0.5,0.1,0.4,0.2,1.1c0,0.4,0.1,0.7,0.1,1.1c0.1,0.6,0.1,0.9,0.2,1.8
					c-0.5,0.8-0.6,1.1-1.1,1.9v0.1c0.7,0,0.9,0,1.4,0l0.1-0.1C317.2,24.7,320.3,19.4,320.3,19.4L320.3,19.4z"/>
				<path class="st13" d="M294,19.9c0.4-0.3,0.5-0.7,0.1-0.9c-0.4-0.2-1-0.1-1.4,0.1c-0.4,0.3-0.5,0.7-0.1,0.9
					C293,20.2,293.6,20.2,294,19.9L294,19.9z"/>
				<path class="st13" d="M316.7,25.6l-0.6,1c-0.2,0.4-0.5,0.6-1.1,0.6h-1l0.3-0.9h0.2c0.1,0,0.2,0,0.2,0l0.1-0.1l0.4-0.6H316.7
					L316.7,25.6z"/>
			</g>
		</g>
	</g>
</g>
</svg>
